<svg width="45" height="39" viewBox="0 0 45 39" fill="none" xmlns="http://www.w3.org/2000/svg">
<path d="M31.0714 0C25.2521 0 20.5294 4.70215 20.4033 10.4923C15.2581 9.87523 11.9076 7.95152 9.85234 6.05601C7.57309 3.95392 6.85154 2.08633 6.85154 2.08633C6.7462 1.82091 6.57206 1.58835 6.34701 1.41257C6.12197 1.23679 5.85417 1.12414 5.57114 1.0862C5.28812 1.04827 5.00009 1.08642 4.73671 1.19673C4.47332 1.30705 4.24407 1.48554 4.07256 1.71385C4.07256 1.71385 2.14317 4.28566 2.14317 8.03562C2.14317 10.1795 2.82009 11.7658 3.62683 13.1102C3.59711 13.0963 3.39665 13.0265 3.39665 13.0265C3.1405 12.8986 2.85485 12.8414 2.56922 12.8609C2.28359 12.8804 2.00835 12.9759 1.77196 13.1374C1.53557 13.2989 1.34661 13.5206 1.22461 13.7796C1.10262 14.0386 1.05201 14.3255 1.07804 14.6106C1.07804 14.6106 1.69661 19.1321 5.94754 22.4369L5.5039 22.5479C5.26309 22.608 5.03947 22.723 4.85057 22.8841C4.66168 23.0451 4.51264 23.2476 4.41513 23.4759C4.31763 23.7041 4.27431 23.9519 4.28858 24.1997C4.30284 24.4475 4.3743 24.6886 4.49736 24.9041C4.49736 24.9041 5.21819 26.1235 6.72808 27.4069C7.6233 28.1678 8.93838 28.953 10.4885 29.6795C8.58481 30.3751 5.74615 31.071 1.60747 31.071C1.29863 31.071 0.99633 31.16 0.736721 31.3272C0.477112 31.4945 0.271192 31.733 0.143596 32.0143C0.0159995 32.2955 -0.0278698 32.6076 0.0172364 32.9131C0.0623426 33.2186 0.194514 33.5047 0.397939 33.737C0.397939 33.737 1.62603 35.0899 4.05373 36.267C6.48142 37.4441 10.2211 38.571 15.5359 38.571C24.8783 38.571 31.5907 34.0894 35.7798 28.4093C39.9689 22.7291 41.7855 15.9224 41.7855 10.7142C41.7855 10.3837 41.7649 10.0578 41.7353 9.73481C43.9973 7.5552 44.8462 5.91661 44.8868 5.83628C45.0904 5.42808 45.0145 4.93782 44.6985 4.61211C44.3835 4.28533 43.8952 4.1933 43.4806 4.38401L43.3069 4.46353C43.1579 4.5321 43.0091 4.60111 42.8591 4.66861C43.2951 3.97326 43.6392 3.23018 43.8782 2.46091C44.011 2.03663 43.8676 1.5717 43.5161 1.29742C43.1647 1.02313 42.6807 0.993771 42.3003 1.22627C40.9908 2.02215 39.7356 2.57931 38.429 2.95267C36.5062 1.12871 33.918 0 31.0714 0ZM31.0714 3.21425C35.2319 3.21425 38.5713 6.55366 38.5713 10.7142C38.5713 15.1486 36.9059 21.4668 33.1933 26.5008C29.4807 31.5348 23.8718 35.3567 15.5359 35.3567C11.5018 35.3567 8.8183 34.627 6.8076 33.8375C8.91381 33.5104 10.7273 33.0739 12.0307 32.5694C14.2911 31.6944 15.5108 30.6839 15.5108 30.6839C15.7345 30.4919 15.9011 30.2421 15.9923 29.9617C16.0836 29.6814 16.096 29.3813 16.0281 29.0944C15.9603 28.8075 15.8148 28.5448 15.6077 28.335C15.4006 28.1252 15.1397 27.9764 14.8537 27.9049C11.9365 27.1756 10.0656 25.9961 8.89184 25.0129L10.568 24.5944C10.8995 24.5117 11.196 24.3255 11.4145 24.0628C11.633 23.8002 11.7621 23.4747 11.7831 23.1337C11.8041 22.7927 11.7158 22.4539 11.5312 22.1664C11.3466 21.879 11.0752 21.6578 10.7563 21.535C7.27948 20.1978 5.81945 18.3066 5.07283 16.722C5.98136 16.9101 6.82729 17.1426 8.03596 17.1426C8.39789 17.1424 8.74913 17.0199 9.03281 16.7951C9.3165 16.5704 9.51601 16.2564 9.59905 15.9042C9.6821 15.5519 9.64382 15.1819 9.4904 14.8541C9.33698 14.5263 9.07742 14.2598 8.75373 14.0979C8.75373 14.0979 5.35742 12.5356 5.35742 8.03562C5.35742 7.22771 5.58118 6.71601 5.74455 6.10414C6.3051 6.85744 6.76706 7.58411 7.67185 8.41856C10.4304 10.9627 14.9898 13.5568 21.8786 13.9263C22.0965 13.9379 22.3146 13.905 22.5194 13.8296C22.7243 13.7542 22.9116 13.6379 23.07 13.4877C23.2285 13.3375 23.3546 13.1566 23.4408 12.9561C23.527 12.7556 23.5715 12.5396 23.5715 12.3213V10.7142C23.5715 6.55366 26.9109 3.21425 31.0714 3.21425Z" fill="black"/>
</svg>
